<?xml version="1.0" standalone="no"?>
<!DOCTYPE svg PUBLIC "-//W3C//DTD SVG 20010904//EN"
 "http://www.w3.org/TR/2001/REC-SVG-20010904/DTD/svg10.dtd">
<svg version="1.0" xmlns="http://www.w3.org/2000/svg"
 width="512.000000pt" height="512.000000pt" viewBox="0 0 512.000000 512.000000"
 preserveAspectRatio="xMidYMid meet">

<g transform="translate(0.000000,512.000000) scale(0.100000,-0.100000)"
fill="#000000" stroke="none">
<path d="M1009 5102 c-15 -9 -245 -235 -512 -502 -327 -326 -488 -494 -493
-512 -3 -16 -3 -40 1 -55 4 -18 93 -115 247 -270 l241 -241 -40 -21 c-22 -11
-61 -43 -86 -71 -110 -122 -109 -306 2 -432 35 -40 140 -98 178 -98 22 0 23
-4 23 -62 0 -35 5 -80 10 -100 26 -91 121 -183 219 -212 l46 -13 6 -74 c8 -85
17 -114 59 -174 38 -55 101 -99 172 -121 l53 -17 1 -66 c2 -169 130 -300 301
-309 65 -4 91 1 244 48 94 28 172 50 174 48 2 -2 9 -35 15 -73 9 -53 9 -146 0
-375 -12 -303 -12 -305 9 -362 27 -69 96 -149 154 -177 85 -41 167 -46 268
-15 12 3 25 -9 42 -38 82 -139 236 -194 398 -143 12 4 24 -7 42 -37 81 -137
253 -199 398 -143 12 4 23 -6 42 -37 86 -146 270 -204 420 -132 l37 18 163
-161 c164 -164 190 -182 245 -168 36 9 1018 991 1028 1029 3 14 3 38 -1 54 -4
17 -97 118 -260 282 l-253 255 -12 80 c-27 181 -95 397 -180 568 -49 98 -69
117 -122 117 -50 0 -98 -43 -98 -88 0 -16 22 -76 49 -133 49 -105 121 -306
121 -340 0 -15 -28 1 -127 68 -242 164 -367 202 -460 141 -47 -31 -78 -88 -93
-169 -5 -30 -17 -277 -25 -549 -9 -272 -20 -554 -24 -626 -9 -148 -19 -172
-84 -199 -42 -17 -78 -12 -119 17 -47 32 -50 63 -38 329 12 266 10 288 -41
314 -54 29 -110 12 -137 -40 -6 -11 -13 -90 -17 -175 -8 -196 -20 -234 -81
-261 -48 -22 -82 -18 -126 13 -47 33 -51 64 -38 333 10 213 9 248 -4 273 -28
55 -120 67 -161 22 -20 -22 -33 -129 -34 -280 -1 -95 -18 -140 -63 -173 -36
-26 -98 -26 -136 1 -54 39 -56 57 -43 332 13 274 11 293 -44 318 -73 33 -145
-10 -146 -90 -2 -162 -17 -318 -32 -342 -25 -38 -63 -59 -107 -59 -48 0 -84
22 -106 65 -16 30 -16 56 -4 315 12 274 10 340 -11 451 l-11 53 53 47 c159
143 144 392 -31 511 -25 16 -66 36 -91 42 l-47 13 -4 75 c-6 93 -36 158 -101
218 -51 47 -91 70 -142 81 l-36 7 -3 70 c-2 43 -11 88 -23 116 -40 89 -127
164 -220 188 l-41 11 -1 61 c0 94 -25 155 -90 220 -110 110 -213 123 -435 54
l-119 -37 -236 236 -236 236 407 407 408 408 155 -155 c85 -85 155 -157 155
-160 0 -3 -14 -14 -31 -25 -52 -33 -114 -126 -134 -199 -45 -166 40 -353 190
-422 28 -12 203 -69 390 -125 187 -56 351 -107 365 -115 14 -7 124 -110 244
-229 120 -118 244 -232 275 -252 89 -59 169 -83 310 -94 233 -18 411 -77 608
-201 79 -50 111 -59 150 -43 66 28 84 103 36 154 -37 39 -195 131 -296 173
l-81 33 -171 230 c-280 378 -350 472 -471 637 -115 158 -164 208 -241 247 -22
11 -232 77 -465 147 l-423 126 -250 248 c-137 136 -260 253 -272 259 -31 16
-64 14 -94 -7z m981 -816 c212 -63 408 -127 436 -141 41 -21 65 -45 116 -113
35 -48 121 -163 190 -257 69 -93 178 -240 241 -325 63 -85 114 -156 113 -157
0 -1 -47 2 -104 7 -160 12 -175 22 -452 295 -185 182 -247 237 -290 258 -31
14 -209 71 -395 127 -187 56 -352 108 -366 116 -95 49 -116 173 -44 253 39 43
84 62 135 56 19 -3 208 -56 420 -119z m-879 -839 c63 -42 70 -134 15 -186 -24
-23 -119 -55 -401 -137 -117 -34 -121 -34 -162 -19 -45 17 -67 43 -77 92 -9
40 14 96 49 119 36 23 461 152 506 153 22 1 49 -8 70 -22z m277 -377 c41 -25
66 -81 57 -128 -13 -67 -39 -82 -301 -160 -132 -40 -249 -72 -258 -72 -32 0
-82 30 -99 59 -9 16 -17 48 -17 70 0 33 7 48 33 76 29 30 55 41 262 104 127
38 244 70 260 70 17 1 45 -8 63 -19z m292 -389 c60 -44 68 -122 18 -176 -30
-31 -56 -41 -271 -106 -262 -78 -288 -81 -338 -33 -48 46 -51 118 -6 169 18
22 67 40 267 101 256 77 282 81 330 45z m296 -395 c27 -27 34 -42 34 -74 0
-57 -15 -89 -50 -111 -43 -26 -467 -151 -512 -151 -73 0 -131 78 -110 149 20
66 44 78 284 151 267 82 305 85 354 36z m2034 -483 c41 -25 143 -93 225 -151
128 -91 186 -142 395 -349 l245 -242 -407 -408 -408 -408 -125 125 c-100 100
-125 129 -120 145 10 33 23 297 40 804 8 262 18 491 21 509 6 30 9 33 33 27
14 -4 60 -27 101 -52z"/>
<path d="M3978 2743 c-75 -48 -58 -163 28 -179 99 -18 163 97 90 165 -31 30
-84 36 -118 14z"/>
</g>
</svg>
